<mxfile host="65bd71144e">
    <diagram id="VulOfIu64BJfvJWir7ll" name="ページ1">
        <mxGraphModel dx="614" dy="561" grid="1" gridSize="10" guides="1" tooltips="1" connect="1" arrows="1" fold="1" page="1" pageScale="1" pageWidth="827" pageHeight="1169" math="0" shadow="0">
            <root>
                <mxCell id="0"/>
                <mxCell id="1" parent="0"/>
                <mxCell id="3" value="" style="ellipse;shape=cloud;whiteSpace=wrap;html=1;fillColor=#fff2cc;strokeColor=#d6b656;fillStyle=cross-hatch;dashed=1;opacity=50;sketch=1;curveFitting=1;jiggle=2;" vertex="1" parent="1">
                    <mxGeometry x="10" y="150" width="750" height="290" as="geometry"/>
                </mxCell>
                <mxCell id="4" value="最適化" style="text;html=1;align=center;verticalAlign=middle;resizable=0;points=[];autosize=1;strokeColor=none;fillColor=none;" vertex="1" parent="1">
                    <mxGeometry x="270" y="370" width="60" height="30" as="geometry"/>
                </mxCell>
                <mxCell id="5" value="グラフアルゴリズム" style="text;html=1;align=center;verticalAlign=middle;resizable=0;points=[];autosize=1;strokeColor=none;fillColor=none;" vertex="1" parent="1">
                    <mxGeometry x="140" y="290" width="130" height="30" as="geometry"/>
                </mxCell>
                <mxCell id="6" value="計算複雑性" style="text;html=1;align=center;verticalAlign=middle;resizable=0;points=[];autosize=1;strokeColor=none;fillColor=none;" vertex="1" parent="1">
                    <mxGeometry x="484" y="330" width="80" height="30" as="geometry"/>
                </mxCell>
                <mxCell id="7" value="分散計算" style="text;html=1;align=center;verticalAlign=middle;resizable=0;points=[];autosize=1;strokeColor=none;fillColor=none;" vertex="1" parent="1">
                    <mxGeometry x="344" y="220" width="70" height="30" as="geometry"/>
                </mxCell>
                <mxCell id="8" value="量子計算" style="text;html=1;align=center;verticalAlign=middle;resizable=0;points=[];autosize=1;strokeColor=none;fillColor=none;" vertex="1" parent="1">
                    <mxGeometry x="494" y="220" width="70" height="30" as="geometry"/>
                </mxCell>
                <mxCell id="9" value="暗号" style="text;html=1;align=center;verticalAlign=middle;resizable=0;points=[];autosize=1;strokeColor=none;fillColor=none;" vertex="1" parent="1">
                    <mxGeometry x="564" y="280" width="50" height="30" as="geometry"/>
                </mxCell>
                <mxCell id="10" value="マルコフ連鎖" style="text;html=1;align=center;verticalAlign=middle;resizable=0;points=[];autosize=1;strokeColor=none;fillColor=none;" vertex="1" parent="1">
                    <mxGeometry x="369" y="370" width="90" height="30" as="geometry"/>
                </mxCell>
                <mxCell id="11" value="学習" style="text;html=1;align=center;verticalAlign=middle;resizable=0;points=[];autosize=1;strokeColor=none;fillColor=none;" vertex="1" parent="1">
                    <mxGeometry x="620" y="330" width="50" height="30" as="geometry"/>
                </mxCell>
                <mxCell id="12" value="データ構造" style="text;html=1;align=center;verticalAlign=middle;resizable=0;points=[];autosize=1;strokeColor=none;fillColor=none;" vertex="1" parent="1">
                    <mxGeometry x="240" y="250" width="80" height="30" as="geometry"/>
                </mxCell>
            </root>
        </mxGraphModel>
    </diagram>
</mxfile>